Coordinates
version=1
nRows=19
nColumns=24
inDegrees=yes

Units are S.I. units (second, meters, Newtons, ...)
Angles are in degrees.

endheader
time	pelvis_tilt	pelvis_list	pelvis_rotation	pelvis_tx	pelvis_ty	pelvis_tz	hip_flexion_r	hip_adduction_r	hip_rotation_r	knee_angle_r	ankle_angle_r	subtalar_angle_r	mtp_angle_r	hip_flexion_l	hip_adduction_l	hip_rotation_l	knee_angle_l	ankle_angle_l	subtalar_angle_l	mtp_angle_l	lumbar_extension	lumbar_bending	lumbar_rotation
      4.49500000	    -16.68997859	      5.27681323	     -3.71363898	     -0.97468843	     -0.00990282	     -0.35354251	     35.43654902	     -5.03146243	     -2.41945800	    -59.62433254	     -2.17348250	    -11.98121610	     23.43047700	     21.51704518	      6.71725247	     -7.43029456	    -16.05453660	      4.56896148	     -3.09415482	      3.76208968	     20.27128883	     -6.69578506	    -13.40585802
      4.50000000	    -16.70081888	      4.97191580	     -3.51214527	     -0.96897447	     -0.00934157	     -0.35409978	     35.92609185	     -4.85597806	     -3.01050190	    -58.76888667	     -1.69757249	    -11.98669523	     22.87403848	     20.78374330	      6.57539454	     -7.12944158	    -15.48165714	      4.69360861	     -2.94232810	      3.66420923	     20.22371146	     -6.46170344	    -13.78223989
      4.50500000	    -16.72874853	      4.67052495	     -3.33709116	     -0.96327891	     -0.00887040	     -0.35464274	     36.42075175	     -4.67731344	     -3.58833636	    -57.84729196	     -1.26471272	    -11.99708308	     22.44622389	     20.07996608	      6.41967011	     -6.90357204	    -14.91842278	      4.80264437	     -2.82799961	      3.58316798	     20.19492962	     -6.21550611	    -14.12102526
      4.51000000	    -16.68748406	      4.41669787	     -3.12856620	     -0.95760402	     -0.00842464	     -0.35512462	     36.83381098	     -4.57225749	     -4.19218617	    -56.90014518	     -0.88979541	    -12.05230228	     21.81054656	     19.28284020	      6.31786382	     -6.57310872	    -14.31395069	      4.91486021	     -2.66531031	      3.49368360	     20.09218600	     -6.05423241	    -14.50247311
      4.51500000	    -16.73071821	      4.14272067	     -2.97512012	     -0.95193283	     -0.00813689	     -0.35560255	     37.31635351	     -4.41512464	     -4.74735047	    -55.87311290	     -0.51074798	    -12.01570533	     21.38209782	     18.60488882	      6.16387185	     -6.39217465	    -13.75458423	      5.03335226	     -2.54215160	      3.43596822	     20.08541452	     -5.82833915	    -14.80024542
      4.52000000	    -16.74005504	      3.89391825	     -2.80547122	     -0.94625868	     -0.00789723	     -0.35602934	     37.74607650	     -4.29427376	     -5.31071625	    -54.80227831	     -0.18113490	    -11.99562862	     20.93371636	     17.88204557	      6.03296950	     -6.16530243	    -13.17709288	      5.16173792	     -2.38888028	      3.39423944	     20.04575301	     -5.64800115	    -15.11530934
      4.52500000	    -16.62580737	      3.69843983	     -2.69434931	     -0.94059283	     -0.00763583	     -0.35636890	     38.05399843	     -4.20066469	     -5.82874862	    -53.74718103	      0.15040950	    -11.84735830	     19.66159675	     16.99999783	      5.94573341	     -5.93563075	    -12.54277364	      5.25371828	     -2.28743858	      3.32596018	     19.87484999	     -5.50924310	    -15.33480516
      4.53000000	    -16.73903187	      3.47713643	     -2.51606686	     -0.93498859	     -0.00767932	     -0.35676755	     38.57148749	     -4.10649887	     -6.37528305	    -52.58668089	      0.45600501	    -11.75979378	     19.43828021	     16.43562493	      5.81812282	     -5.79738617	    -12.03267860	      5.40300749	     -2.07564236	      3.34121418	     19.93798566	     -5.35500331	    -15.66260755
      4.53500000	    -16.73421960	      3.25583093	     -2.36514078	     -0.92937404	     -0.00765953	     -0.35708504	     38.94018888	     -4.00522018	     -6.92205509	    -51.37674827	      0.70969516	    -11.65422681	     19.10388278	     15.72418029	      5.68372452	     -5.61634727	    -11.48633840	      5.54131990	     -1.89155764	      3.35177296	     19.87371303	     -5.21048679	    -15.94945096
      4.54000000	    -16.74970630	      3.05023876	     -2.24597981	     -0.92375786	     -0.00774574	     -0.35741991	     39.31375974	     -3.89473815	     -7.41247286	    -50.11607942	      0.97727872	    -11.48203621	     18.78600060	     15.05335154	      5.55741727	     -5.50159783	    -10.97013677	      5.68486176	     -1.74535692	      3.36349108	     19.83799573	     -5.05088756	    -16.19299465
      4.54500000	    -16.75186766	      2.85074122	     -2.12662490	     -0.91815248	     -0.00788751	     -0.35769206	     39.65704802	     -3.78802447	     -7.90567625	    -48.82026014	      1.20629446	    -11.27567719	     18.45155173	     14.37735423	      5.42776629	     -5.37612478	    -10.47006291	      5.83444952	     -1.58451062	      3.38446403	     19.78313829	     -4.90856379	    -16.43278239
      4.55000000	    -16.74508053	      2.65630413	     -2.01626372	     -0.91255975	     -0.00809586	     -0.35794247	     39.97468933	     -3.67818983	     -8.38619605	    -47.48755059	      1.40736289	    -11.02644052	     18.10140118	     13.70484418	      5.29710575	     -5.25079361	     -9.99255213	      6.00278218	     -1.42563086	      3.40993688	     19.71904871	     -4.76891092	    -16.65173456
      4.55500000	    -16.76117402	      2.47111976	     -1.92581774	     -0.90697442	     -0.00840670	     -0.35816248	     40.30275400	     -3.55691755	     -8.83228219	    -46.11780237	      1.58593875	    -10.73986495	     17.79871802	     13.07522191	      5.16651217	     -5.15169614	     -9.54726509	      6.18150795	     -1.28628210	      3.42461433	     19.67685100	     -4.62810364	    -16.85212425
      4.56000000	    -16.77977211	      2.28827340	     -1.84613469	     -0.90139309	     -0.00879710	     -0.35834921	     40.61353692	     -3.42433064	     -9.26335226	    -44.70846790	      1.74747607	    -10.43218572	     17.53182923	     12.46909401	      5.03195532	     -5.06196346	     -9.14162854	      6.38675531	     -1.16313982	      3.43022708	     19.63782150	     -4.48839108	    -17.04225690
      4.56500000	    -16.87926428	      2.14571611	     -1.81231910	     -0.89585805	     -0.00934163	     -0.35846708	     41.01076526	     -3.27484058	     -9.57471072	    -43.26637637	      1.86771607	    -10.09242906	     17.39765854	     11.98328975	      4.92419228	     -5.02540006	     -8.78931847	      6.57115278	     -1.09776269	      3.41862513	     19.68322949	     -4.36215896	    -17.10394514
      4.57000000	    -16.83201314	      1.92432769	     -1.68391315	     -0.89027076	     -0.00975958	     -0.35866039	     41.18592920	     -3.13851549	    -10.08555491	    -41.76977069	      1.95424667	     -9.75841699	     17.15042879	     11.34876820	      4.75056433	     -4.88825867	     -8.46585279	      6.82572405	     -0.92994860	      3.41241037	     19.56266915	     -4.21433087	    -17.39011499
      4.57500000	    -16.84414614	      1.74316255	     -1.62417183	     -0.88469965	     -0.01031475	     -0.35876781	     41.42463282	     -2.97029959	    -10.46278125	    -40.24999002	      2.00834401	     -9.38513581	     16.92802498	     10.80317165	      4.60145972	     -4.81456402	     -8.18661478	      7.06966990	     -0.83094439	      3.38166708	     19.50895289	     -4.07062581	    -17.54121287
      4.58000000	    -16.87970812	      1.56918904	     -1.56013841	     -0.87914089	     -0.01095664	     -0.35885244	     41.67095600	     -2.80297051	    -10.83198005	    -38.70585793	      2.02804289	     -9.00812118	     16.73679112	     10.31140714	      4.45559175	     -4.74627759	     -7.95770749	      7.33274201	     -0.73993035	      3.35028615	     19.47828816	     -3.93808766	    -17.68885590
      4.58500000	    -16.91468355	      1.39889458	     -1.49738014	     -0.87358061	     -0.01164744	     -0.35892839	     41.89500496	     -2.62842666	    -11.17634034	    -37.13462286	      2.01391265	     -8.62470894	     16.55558707	      9.84206037	      4.31098506	     -4.68424204	     -7.77130087	      7.60554742	     -0.65191297	      3.31231201	     19.44327125	     -3.80441231	    -17.83459052
